HIERARCHY
ROOT pelvis
{
  OFFSET 0 100 0
  CHANNELS 6 Xposition Yposition Zposition Zrotation Xrotation Yrotation
  JOINT pelvis_right_femur
  {
    OFFSET -10.78128 -3.44521 -0.5502486
    CHANNELS 3 Zrotation Xrotation Yrotation
    JOINT right_femur_tibia
    {
      OFFSET -0.8047443 -44.0398 -0.1307829
      CHANNELS 3 Zrotation Xrotation Yrotation
      JOINT right_tibia_foot
      {
        OFFSET 3.006224 -47.83518 -5
        CHANNELS 3 Zrotation Xrotation Yrotation
        End Site
        {
          OFFSET 0 -5 15
        }
      }
    }
  }
  JOINT pelvis_left_femur
  {
    OFFSET 10.78128 -3.44521 -0.5502486
    CHANNELS 3 Zrotation Xrotation Yrotation
    JOINT left_femur_tibia
    {
      OFFSET 0.8047443 -44.0398 -0.1307829
      CHANNELS 3 Zrotation Xrotation Yrotation
      JOINT left_tibia_foot
      {
        OFFSET -4.370144 -48.10324 -4.275266
        CHANNELS 3 Zrotation Xrotation Yrotation
        End Site
        {
          OFFSET 0 -5 15
        }
      }
    }
  }
  JOINT pelvis_spine1
  {
    OFFSET 0 6.468898 -3.129235
    CHANNELS 3 Zrotation Xrotation Yrotation
    JOINT spine1
    {
      OFFSET 0 23.15396 4.99043
      CHANNELS 3 Zrotation Xrotation Yrotation
      JOINT spine2
      {
        OFFSET 0 20.79997 -5.064912
        CHANNELS 3 Zrotation Xrotation Yrotation
        JOINT neck
        {
          OFFSET 0 14.38658 9.616178
          CHANNELS 3 Zrotation Xrotation Yrotation
          End Site
          {
            OFFSET 0 20 0
          }
        }
      }
      JOINT right_manubrium
      {
        OFFSET -5.722621 16.35077 3.967754
        CHANNELS 3 Zrotation Xrotation Yrotation
        JOINT right_clavicle
        {
          OFFSET -13.16364 1.694482 -4.693211
          CHANNELS 3 Zrotation Xrotation Yrotation
          JOINT right_humerus
          {
            OFFSET -28.5034 -0.3100689 -2.792744
            CHANNELS 3 Zrotation Xrotation Yrotation
            JOINT right_radius
            {
              OFFSET -25.15693 0.02248979 -1.271978
              CHANNELS 3 Zrotation Xrotation Yrotation
              End Site
              {
                OFFSET -15 0 0
              }
            }
          }
        }
      }
      JOINT left_manubrium
      {
        OFFSET 5.722621 16.35077 3.967754
        CHANNELS 3 Zrotation Xrotation Yrotation
        JOINT left_clavicle
        {
          OFFSET 13.16364 1.694482 -4.693211
          CHANNELS 3 Zrotation Xrotation Yrotation
          JOINT left_humerus
          {
            OFFSET 29.39168 -1.063119 -2.237045
            CHANNELS 3 Zrotation Xrotation Yrotation
            JOINT left_radius
            {
              OFFSET 24.59957 -0.9528479 0.9047498
              CHANNELS 3 Zrotation Xrotation Yrotation
              End Site
              {
                OFFSET 15 -0 -0
              }
            }
          }
        }
      }
    }
  }
}
MOTION
Frames: 19
Frame Time: 0.0416666666667
0 103.5113 0 2.493663 0.7433398 0.07808889 2.413149 -14.90714 10.75653 -0 37.86312 -0 -4.635553 -18.32477 -2.71229 -9.166394 8.467654 -21.91931 -0 5.012492 -0 21.66185 -9.437361 30.05884 -2.630235 -2.667768 5.162401 2.758719 9.636376 -7.621485 1.519857 20.82357 6.252325 2.949161 -26.39554 9.231994 4.992514 -20.03176 11.17246 85.03399 34.77321 -17.12523 -0 0 16.5357 -8.785655 8.681035 5.170233 6.623131 -20.48828 0.08674456 -92.70585 22.06959 21.27398 0 0 -13.72215 12.93528 14.95142 -1.410045
0.2826538 103.601 1.70217 1.92672 1.374438 0.1374923 3.629812 -17.30707 11.54575 -0 38.21447 -0 -4.935772 -17.3224 -2.83981 -8.871203 8.250666 -21.59054 -0 5.611937 -0 22.57798 -9.80127 30.53504 -2.388391 -2.62867 4.945006 2.940833 9.644113 -7.943436 1.498381 20.48068 6.521634 3.112129 -26.70506 9.421679 5.039508 -19.66736 11.19479 85.78027 34.6592 -18.38232 -0 0 15.71607 -8.712754 9.088654 4.833827 6.944559 -20.84672 0.07874605 -92.39635 21.61557 20.57514 0 0 -14.6556 13.25243 14.77093 -1.858281
0.5666765 103.5644 3.538323 1.191396 0.9898043 0.2444634 4.514858 -20.11259 9.575383 -0 35.76463 -0 -5.80215 -14.97381 -2.506186 -7.971508 10.11675 -21.67964 -0 5.988573 -0 17.44026 -14.1171 28.84846 -2.291463 -2.362774 4.826826 3.041102 9.572877 -7.962232 1.402009 20.45521 6.571191 3.168973 -26.60597 9.19288 5.041542 -19.33643 11.31355 85.64028 34.38865 -18.27256 -0 0 15.17826 -9.112355 9.152347 5.368409 6.75722 -20.81588 -0.08240126 -92.01575 21.58108 20.16366 0 0 -15.1446 12.52813 14.37574 -1.095687
0.8528145 103.4873 5.528884 0.654936 1.140137 0.3373986 5.264675 -22.44305 8.877292 -0 34.13281 -0 -6.312304 -13.36802 -2.354881 -7.437092 10.81263 -21.40385 -0 6.424245 -0 15.19989 -16.22404 27.84102 -2.178989 -2.255767 4.691303 3.135143 9.531692 -8.074734 1.359111 20.34337 6.699418 3.26969 -26.64445 9.171261 5.115966 -19.03714 11.35398 85.8222 34.27445 -18.7176 -0 0 14.6665 -9.184206 9.319924 5.433948 6.802471 -20.93189 -0.1744899 -91.82231 21.59215 19.78643 0 0 -15.71987 12.21402 14.21727 -0.7242472
1.133099 103.2998 7.80238 0.07599791 1.387001 0.458002 5.978911 -25.34511 7.681392 -0 31.35478 -0 -7.083339 -11.24573 -1.930978 -6.854689 11.54437 -20.74869 -0 7.105558 -0 12.83368 -18.41336 26.28287 -2.082879 -2.150219 4.566749 3.216488 9.487669 -8.16616 1.316995 20.25518 6.812119 3.362729 -26.6557 9.134715 5.194336 -18.75445 11.39145 85.95325 34.17279 -19.08708 -0 0 14.20323 -9.260802 9.465691 5.523275 6.826034 -21.02514 -0.2708056 -91.65063 21.65498 19.45286 0 0 -16.24595 11.85381 14.07083 -0.2862625
1.401946 103.0124 10.39963 -0.4298355 1.783452 0.6208334 6.582218 -27.98906 6.690591 -0 28.55665 -0 -7.759827 -9.264074 -1.482944 -6.375586 12.05567 -19.97246 -0 7.937263 -0 10.98276 -19.96982 24.71454 -1.987328 -2.069249 4.436911 3.295096 9.442159 -8.268255 1.283149 20.15921 6.937726 3.4653 -26.68137 9.127964 5.294363 -18.4714 11.41437 86.12171 34.10411 -19.53772 -0 0 13.74829 -9.276244 9.625986 5.540817 6.881876 -21.1364 -0.3607439 -91.52036 21.76636 19.13656 0 0 -16.78871 11.51974 13.97244 0.1454154
1.651051 102.6266 13.41049 -0.9302267 2.290148 0.8492684 7.122947 -30.53998 5.627213 -0 25.37705 -0 -8.46783 -7.147098 -0.9238363 -5.909223 12.5036 -18.99009 -0 9.183161 -0 9.127786 -21.11468 22.81235 -1.89279 -1.984546 4.304914 3.372872 9.393778 -8.368479 1.248174 20.06614 7.061939 3.567889 -26.699 9.115191 5.39618 -18.18534 11.43711 86.28346 34.03701 -19.97989 -0 0 13.29319 -9.298491 9.788059 5.568437 6.931942 -21.24424 -0.4545469 -91.38687 21.89265 18.81958 0 0 -17.33562 11.15953 13.86947 0.6097986
1.874044 102.1737 16.8946 -1.417126 2.833747 1.154035 7.602356 -32.60634 4.643778 -0 22.25544 -0 -9.124473 -5.103371 -0.356449 -5.449841 12.86614 -17.91157 -0 10.98811 -0 7.136866 -21.67427 20.62518 -1.802003 -1.891627 4.173276 3.44778 9.342232 -8.461297 1.210449 19.98183 7.180184 3.667758 -26.7002 9.088097 5.496863 -17.89861 11.46165 86.42382 33.96936 -20.3873 -0 0 12.8439 -9.341087 9.946698 5.623745 6.966342 -21.34169 -0.5549753 -91.24602 22.03648 18.50599 0 0 -17.87656 10.75731 13.75473 1.124085
2.066278 101.7126 20.91413 -1.912484 3.334643 1.534038 8.052121 -33.93355 3.762148 -0 19.38012 -0 -9.725164 -3.198979 0.1643791 -4.955306 13.13163 -16.74332 -0 13.6935 -0 4.773815 -21.50171 18.05725 -1.719612 -1.780246 4.047708 3.516843 9.288813 -8.536912 1.166318 19.91613 7.282447 3.757851 -26.6703 9.029614 5.58537 -17.61744 11.49311 86.5166 33.8926 -20.70544 -0 0 12.40966 -9.438154 10.09192 5.745097 6.965456 -21.41589 -0.6656414 -91.08161 22.18422 18.19657 0 0 -18.38974 10.29549 13.60637 1.700838
2.228941 101.339 25.50109 -2.409819 3.675393 1.961337 8.496625 -34.1455 3.099215 -0 17.13687 -0 -10.22167 -1.649637 0.5239296 -4.409921 13.20536 -15.54296 -0 17.64357 -0 1.992034 -20.38559 15.2032 -1.653674 -1.646827 3.937622 3.573283 9.236197 -8.583248 1.114331 19.88151 7.358079 3.830893 -26.59392 8.927505 5.653693 -17.35485 11.53344 86.53469 33.80716 -20.88052 -0 0 12.01416 -9.614151 10.21185 5.958852 6.913361 -21.45366 -0.7880299 -90.8911 22.33354 17.90651 0 0 -18.84163 9.764509 13.41488 2.349284
2.371278 101.1859 30.64531 -2.875116 3.723351 2.371898 8.929928 -32.90348 2.744013 -0 15.82454 -0 -10.57268 -0.6900479 0.6051215 -3.821631 12.90254 -14.34478 -0 23.23715 -0 -1.073724 -18.16105 12.28967 -1.613895 -1.489196 3.856418 3.607929 9.18947 -8.586003 1.053668 19.89171 7.394387 3.878149 -26.45303 8.769262 5.691769 -17.12957 11.58445 86.4477 33.7137 -20.85004 -0 0 11.68994 -9.898576 10.29382 6.292225 6.793753 -21.44029 -0.9223196 -90.67379 22.47686 17.65647 0 0 -19.18934 9.161418 13.17003 3.070658
2.511518 101.4029 36.26574 -3.222088 3.358275 2.663182 9.265936 -30.01759 2.72272 -0 15.54299 -0 -10.75137 -0.5523835 0.3239427 -3.252561 11.91383 -13.17819 -0 30.70036 -0 -4.021388 -14.88699 9.730361 -1.610803 -1.309518 3.821689 3.608863 9.156169 -8.529801 0.9854587 19.95969 7.378475 3.891125 -26.22893 8.546097 5.69064 -16.96644 11.64648 86.22544 33.61458 -20.55211 -0 0 11.48077 -10.31851 10.32673 6.764077 6.594457 -21.36139 -1.066374 -90.43751 22.60634 17.4769 0 0 -19.38315 8.491841 12.86703 3.858425
2.670667 102.1055 42.1973 -3.315771 2.530471 2.719471 9.325172 -25.60671 2.925397 -0 15.93815 -0 -10.77303 -1.322117 -0.2887502 -2.816667 9.83402 -12.03971 -0 39.82453 -0 -6.307568 -11.00958 7.965068 -1.652817 -1.11305 3.853671 3.56323 9.146288 -8.400818 0.9127941 20.09342 7.299114 3.863015 -25.90433 8.253758 5.642694 -16.89339 11.7193 85.8424 33.5086 -19.93339 -0 0 11.43546 -10.89966 10.30517 7.383951 6.3098 -21.20521 -1.215775 -90.19515 22.70751 17.40201 0 0 -19.37563 7.77026 12.50292 4.695969
2.858055 103.2977 48.20953 -3.016802 1.315324 2.471093 8.914919 -20.15945 3.126834 -0 16.17106 -0 -10.67938 -2.810775 -1.037956 -2.625337 6.304165 -10.90426 -0 49.60289 -0 -7.487443 -7.353352 7.263094 -1.742651 -0.9084028 3.971633 3.459665 9.171256 -8.190938 0.8411693 20.29081 7.150331 3.791408 -25.46744 7.895806 5.544728 -16.93612 11.80179 85.28641 33.38766 -18.96701 -0 0 11.59925 -11.6595 10.23422 8.145081 5.945359 -20.96671 -1.364329 -89.96439 22.76 17.46387 0 0 -19.13524 7.018794 12.07758 5.558299
3.05751 104.815 54.074 -2.27377 -0.101006 1.952534 7.985935 -14.34402 3.109512 -0 15.3375 -0 -10.47586 -4.563309 -1.628706 -2.669215 1.261773 -9.74966 -0 58.16195 -0 -7.483975 -4.776216 7.619952 -1.874689 -0.7067159 4.189475 3.290713 9.242235 -7.900952 0.7782051 20.53686 6.933946 3.680009 -24.91503 7.484927 5.400219 -17.11204 11.89199 84.56546 33.23457 -17.66656 -0 0 12.0044 -12.60109 10.13126 9.021392 5.519744 -20.65026 -1.505856 -89.76571 22.7411 17.6858 0 0 -18.65791 6.262302 11.59401 6.418019
3.233231 106.3476 59.64921 -1.212312 -1.517838 1.297174 6.743124 -8.673128 2.821553 -0 13.1907 -0 -10.10018 -6.109578 -1.844919 -2.730343 -4.867131 -8.562251 -0 63.26199 -0 -6.665965 -3.689929 8.835995 -2.036223 -0.5207002 4.513011 3.053454 9.366907 -7.539493 0.7327278 20.80712 6.659387 3.538063 -24.25353 7.042 5.220028 -17.42785 11.98657 83.70638 33.02696 -16.08458 -0 0 12.66843 -13.70688 10.02072 9.969371 5.061158 -20.26732 -1.635761 -89.62356 22.63794 18.08365 0 0 -17.96541 5.520175 11.06172 7.256288
3.360886 107.5495 64.92041 -0.1341192 -2.802481 0.6586509 5.581829 -3.346952 2.418046 -0 10.42533 -0 -9.491969 -7.319641 -1.695028 -2.443876 -11.2618 -7.302833 -0 63.23909 -0 -5.615635 -3.847819 10.62495 -2.212697 -0.3624105 4.940709 2.748654 9.544975 -7.117073 0.7129648 21.07717 6.340238 3.376977 -23.49899 6.592065 5.019274 -17.88285 12.08076 82.74174 32.74583 -14.28827 -0 0 13.60103 -14.93842 9.922501 10.93806 4.598301 -19.82811 -1.750156 -89.56866 22.45906 18.67458 0 0 -17.08734 4.799988 10.49954 8.070166
3.458943 108.1645 69.97465 0.6084631 -3.857322 0.123733 4.866644 1.575185 2.111451 -0 8.118186 -0 -8.689589 -8.536937 -1.365602 -1.508164 -17.05022 -5.915495 -0 57.75298 -0 -4.749225 -4.570145 12.63184 -2.39239 -0.2398913 5.464727 2.381468 9.76414 -6.641422 0.7242319 21.33024 5.991275 3.207002 -22.67886 6.159812 4.812633 -18.47173 12.16914 81.69696 32.38316 -12.33404 -0 0 14.8068 -16.24121 9.843045 11.88091 4.152236 -19.335 -1.842732 -89.63583 22.23434 19.48043 0 0 -16.045 4.098888 9.934443 8.868242
3.58945 108.1018 74.95186 0.7918087 -4.552973 -0.3207613 4.721342 5.953418 1.98912 -0 6.942047 -0 -7.828716 -10.29922 -1.042947 0.08353448 -21.61875 -4.4296 -0 47.96495 -0 -4.136947 -5.163781 14.45668 -2.565971 -0.1540173 6.067346 1.965507 10.00053 -6.121495 0.7667156 21.55635 5.629422 3.036954 -21.83475 5.766591 4.611844 -19.17836 12.24737 80.59493 31.94396 -10.27271 -0 0 16.26741 -17.55151 9.778168 12.7617 3.73596 -18.78747 -1.904222 -89.85056 21.99985 20.50925 0 0 -14.86071 3.412375 9.394237 9.656726
